<?xml version="1.0"?>
<svg version="1.1" xmlns="http://www.w3.org/2000/svg" xmlns:xlink="http://www.w3.org/1999/xlink" width="16" height="16">
    <desc iVinci="yes" version="4.6" gridStep="1" showGrid="no" snapToGrid="no" codePlatform="0"/>
    <g id="Layer1" name="Layer 1" opacity="1">
        <g id="Shape1">
            <desc shapeID="1" type="2" basicInfo-basicType="0" basicInfo-roundedRectRadius="12" basicInfo-polygonSides="6" basicInfo-starPoints="5" bounding="rect(-7.46667,-7.43333,14.9333,14.8667)" text="McQ" font-familyName="Heiti TC" font-pixelSize="7" font-bold="0" font-underline="0" font-alignment="1" strokeStyle="0" markerStart="0" markerEnd="0" shadowEnabled="0" shadowOffsetX="0" shadowOffsetY="2" shadowBlur="4" shadowOpacity="160" blurEnabled="0" blurRadius="4" transform="matrix(0.747795,-0.66393,0.66393,0.747795,8.97803,8.50468)" pers-center="0,0" pers-size="0,0" pers-start="0,0" pers-end="0,0" locked="0" mesh="" flag=""/>
            <path id="shapePath1" d="M3.67727,14.7806 L0.874287,10.5481 L0.931868,10.497 L5.19774,12.2231 L3.97838,7.79213 L4.03596,7.74101 L7.91203,11.0207 L7.54038,11.3507 L4.78514,8.98546 L5.84438,12.8565 L5.75016,12.9402 L1.99747,11.4231 L4.03846,14.4599 L3.67727,14.7806 M9.34958,5.80348 L9.22493,6.23243 C8.69251,6.12477 8.21342,6.25994 7.78768,6.63793 C7.45266,6.93537 7.26702,7.2921 7.23073,7.70811 C7.19445,8.12412 7.31728,8.4909 7.59923,8.80847 C7.88118,9.12603 8.23452,9.29908 8.65926,9.32762 C9.08399,9.35616 9.46735,9.21861 9.80934,8.91497 C10.2176,8.55246 10.4086,8.09275 10.3822,7.53583 L10.8321,7.47331 C10.8723,7.79965 10.8226,8.12148 10.6831,8.4388 C10.5435,8.75611 10.3377,9.03561 10.0655,9.27728 C9.63626,9.65837 9.15221,9.83539 8.61334,9.80834 C8.07448,9.78129 7.62379,9.56361 7.26128,9.15532 C6.89878,8.74702 6.73387,8.26782 6.76655,7.71772 C6.79922,7.16762 7.04414,6.68963 7.50129,6.28374 C7.77,6.04517 8.06977,5.88199 8.40059,5.79421 C8.73141,5.70643 9.04774,5.70952 9.34958,5.80348 M14.8177,4.15937 L16,4.3734 L15.5394,4.78238 L14.725,4.63484 C14.5817,5.09903 14.3269,5.49379 13.9605,5.81912 C13.3917,6.32415 12.7464,6.55853 12.0246,6.52226 C11.3028,6.48599 10.6987,6.19392 10.2122,5.64603 C9.7134,5.08419 9.48105,4.44645 9.51518,3.7328 C9.54932,3.01916 9.85254,2.40827 10.4248,1.90014 C10.7843,1.58101 11.1941,1.37314 11.6544,1.27652 C12.1147,1.1799 12.5668,1.20593 13.0109,1.35462 C13.4549,1.50331 13.8365,1.75737 14.1556,2.11681 C14.6669,2.69262 14.8876,3.37347 14.8177,4.15937 M14.3271,4.07073 C14.3666,3.46153 14.1834,2.92835 13.7776,2.4712 C13.3717,2.01405 12.8738,1.7696 12.284,1.73787 C11.6942,1.70614 11.1812,1.88392 10.7449,2.27121 C10.3087,2.6585 10.0756,3.14629 10.0456,3.73456 C10.0156,4.32284 10.2028,4.84468 10.6072,5.30009 C11.0115,5.7555 11.5047,5.9947 12.0868,6.01771 C12.6689,6.04072 13.1763,5.86013 13.609,5.47594 C13.8986,5.21877 14.1038,4.90866 14.2246,4.5456 L12.4436,4.22659 L12.899,3.82225 L14.3271,4.07073 Z" style="stroke:none;fill-rule:nonzero;fill:#000000;fill-opacity:1;"/>
        </g>
    </g>
</svg>
